<?xml version="1.0" standalone="no"?>
<!DOCTYPE svg PUBLIC "-//W3C//DTD SVG 20010904//EN"
 "http://www.w3.org/TR/2001/REC-SVG-20010904/DTD/svg10.dtd">
<svg version="1.0" xmlns="http://www.w3.org/2000/svg"
 width="2000.000000pt" height="2000.000000pt" viewBox="0 0 2000.000000 2000.000000"
 preserveAspectRatio="xMidYMid meet">

<g transform="translate(0.000000,2000.000000) scale(0.100000,-0.100000)"
fill="#000000" stroke="none">
<path d="M13813 16003 c-16 -46 -100 -157 -162 -216 -128 -120 -289 -215 -479
-281 -152 -53 -288 -75 -517 -86 -235 -11 -348 -35 -484 -102 -116 -57 -244
-184 -365 -360 -117 -171 -172 -236 -269 -313 -146 -117 -300 -194 -435 -216
-79 -13 -91 -9 -115 40 -8 17 -23 28 -42 31 -21 4 -31 12 -33 28 -3 18 -10 22
-39 22 -26 0 -36 5 -40 20 -5 19 -16 25 -37 21 -4 -1 -14 6 -21 16 -7 10 -17
15 -21 10 -4 -4 -14 -1 -23 7 -21 18 -88 39 -101 31 -5 -3 -10 -2 -10 3 0 5
-21 13 -47 17 -27 4 -52 10 -58 14 -17 13 -65 7 -75 -9 -8 -12 -10 -12 -16 3
-7 19 -34 23 -51 6 -8 -8 -16 -7 -29 1 -15 9 -29 8 -64 -5 -81 -30 -119 -36
-138 -24 -15 10 -31 5 -89 -25 -43 -23 -76 -34 -87 -30 -12 5 -19 1 -22 -14
-4 -14 -12 -18 -25 -15 -15 4 -22 0 -26 -16 -4 -16 -11 -20 -24 -16 -22 7 -45
-12 -51 -41 -2 -14 -12 -19 -33 -19 -22 0 -31 -5 -33 -20 -6 -32 -30 -53 -56
-48 -20 4 -24 0 -30 -36 -5 -34 -10 -40 -28 -38 -15 1 -23 -4 -26 -18 -3 -11
-17 -32 -33 -48 -16 -15 -29 -32 -29 -37 0 -5 -8 -23 -19 -41 -10 -17 -17 -39
-14 -49 3 -12 -3 -22 -16 -29 -12 -7 -21 -18 -21 -26 0 -8 -4 -15 -9 -15 -10
0 -31 -108 -31 -158 0 -18 -5 -32 -11 -32 -8 0 -9 -13 -5 -42 4 -22 1 -65 -5
-95 -10 -42 -10 -58 0 -77 9 -16 11 -40 6 -74 -5 -41 -4 -50 10 -56 15 -5 16
-16 10 -76 -6 -58 -5 -70 8 -70 9 0 19 -18 27 -44 8 -28 19 -46 31 -49 13 -4
19 -14 19 -35 0 -21 6 -31 19 -35 14 -3 18 -11 14 -26 -4 -16 1 -23 21 -31 18
-6 26 -17 26 -33 0 -16 9 -26 30 -34 22 -8 30 -18 30 -36 0 -18 7 -27 25 -31
31 -8 67 -46 60 -63 -2 -8 6 -18 19 -23 13 -5 27 -14 31 -19 3 -6 17 -11 30
-11 14 0 26 -7 29 -18 6 -17 57 -46 86 -48 35 -2 40 -5 40 -19 0 -8 5 -15 12
-15 6 0 22 -10 35 -21 17 -17 26 -19 36 -11 10 8 20 8 38 -2 14 -7 40 -11 57
-8 18 2 38 -1 46 -7 8 -7 34 -9 67 -6 30 3 119 7 199 10 162 4 175 6 192 23 7
7 19 12 28 12 9 0 34 8 56 19 21 10 54 24 72 32 17 8 32 17 32 21 0 5 7 8 15
8 8 0 24 8 36 18 11 9 33 27 47 39 15 13 33 23 40 23 6 0 12 8 12 18 0 11 11
24 25 30 14 6 25 17 25 23 0 6 19 33 43 60 24 27 63 83 88 124 24 41 50 75 58
75 9 0 12 8 9 25 -3 14 1 30 8 36 8 6 14 22 14 34 0 13 7 25 15 29 10 4 13 14
9 36 -4 18 -1 38 8 52 13 21 18 50 21 128 1 14 6 28 11 32 7 4 5 16 -3 31 -11
20 -11 32 -1 62 10 30 10 38 -2 48 -18 14 -39 131 -31 170 4 21 2 27 -12 27
-13 0 -15 6 -10 30 5 24 3 30 -9 30 -19 0 -37 40 -30 67 3 11 -5 29 -20 46
-14 16 -26 35 -26 43 0 7 -7 14 -15 14 -9 0 -15 9 -15 25 0 18 -7 26 -25 31
-18 4 -25 13 -25 29 0 17 -7 25 -22 27 -46 7 -25 24 49 41 43 9 123 39 178 66
207 101 342 222 500 451 165 238 272 336 437 400 104 40 216 58 448 70 275 14
435 53 645 155 140 68 267 158 359 255 71 76 143 191 131 210 -10 15 -25 12
-32 -7z"/>
<path d="M11284 12081 c-60 -37 -114 -193 -99 -289 l7 -45 -30 22 c-17 11 -41
21 -55 21 -32 0 -71 -31 -87 -70 -18 -44 -8 -174 17 -232 l21 -46 -28 -109
c-39 -153 -185 -614 -223 -703 -30 -70 -36 -77 -87 -104 -68 -37 -248 -101
-355 -127 -103 -24 -157 -24 -281 2 l-102 22 -5 171 c-3 94 -10 186 -15 204
-10 31 -9 33 9 27 l20 -7 -20 40 c-34 66 -70 101 -185 178 -131 87 -133 89
-168 136 -16 20 -38 40 -50 44 -13 3 -50 32 -83 63 -33 32 -86 72 -117 91
l-57 34 -8 85 c-10 105 -11 367 -1 439 6 45 4 56 -12 72 -11 11 -27 20 -35 20
-26 0 -216 -199 -285 -298 -36 -51 -90 -138 -120 -193 l-55 -101 -110 -33
c-61 -19 -157 -55 -213 -80 -57 -26 -109 -45 -116 -42 -27 11 -166 130 -233
200 -39 41 -94 109 -122 151 -29 42 -55 76 -59 76 -5 0 -17 -6 -27 -14 -55
-40 -40 -508 26 -815 19 -85 20 -105 9 -210 -14 -148 -4 -238 49 -445 29 -111
54 -185 87 -250 57 -113 63 -120 57 -59 l-5 48 27 -35 c83 -108 125 -278 109
-440 l-6 -69 -63 -6 c-51 -6 -71 -3 -106 13 -58 26 -78 49 -147 173 -53 94
-60 113 -64 176 -6 84 -35 143 -83 169 -28 15 -37 16 -64 4 -36 -15 -32 -17
-59 36 -49 97 -144 155 -200 123 -23 -12 -42 -38 -54 -71 -2 -4 -23 0 -48 8
-113 39 -175 -35 -121 -146 10 -21 16 -41 13 -44 -3 -4 -20 -6 -38 -6 -42 0
-94 -42 -94 -76 0 -14 7 -38 15 -53 11 -23 12 -35 3 -59 -27 -71 33 -158 194
-280 51 -38 105 -83 120 -98 29 -32 89 -143 166 -309 174 -378 222 -474 308
-612 133 -215 215 -293 308 -293 34 0 35 -1 41 -47 19 -148 40 -255 62 -313
69 -178 72 -192 73 -288 0 -196 -71 -438 -228 -772 -71 -151 -101 -366 -82
-580 23 -252 23 -289 1 -398 -36 -174 -117 -398 -251 -698 -85 -189 -105 -266
-97 -377 6 -97 31 -173 82 -254 88 -137 249 -273 435 -368 l55 -28 -92 -23
c-177 -43 -273 -118 -273 -211 0 -55 20 -94 67 -130 l36 -28 676 0 c660 0 678
1 768 22 158 38 281 93 395 179 l57 43 91 -19 c51 -10 94 -21 97 -24 10 -9 23
-82 23 -129 0 -26 6 -60 14 -76 35 -67 153 -141 268 -169 125 -31 447 -23 573
13 65 19 129 64 150 106 10 18 22 29 30 26 33 -13 477 -18 670 -8 746 40 1299
186 1699 449 82 55 182 144 202 183 33 65 4 109 -71 109 -64 0 -150 -24 -485
-135 -506 -166 -757 -220 -1080 -232 -363 -13 -825 45 -1107 138 l-63 21 -20
65 c-17 55 -20 93 -20 245 0 252 -19 370 -161 1008 -127 570 -137 635 -144
905 -2 105 -9 233 -15 285 -27 244 -90 548 -159 772 -43 140 -54 235 -53 488
0 239 10 397 43 735 l21 210 47 80 c27 44 101 175 166 290 174 309 208 366
318 520 140 195 243 355 283 439 41 86 69 195 163 633 80 371 99 443 137 498
43 64 127 155 164 178 50 31 129 106 147 140 12 24 12 34 2 58 -13 32 -54 59
-90 59 -20 0 -21 1 -5 23 41 57 76 124 76 148 0 39 -43 73 -93 74 -23 0 -55
-4 -71 -8 -24 -7 -28 -5 -22 8 3 9 9 41 12 70 6 49 4 56 -20 80 -24 24 -33 27
-72 22 -50 -5 -104 -42 -137 -93 -24 -37 -37 -43 -37 -16 0 36 -21 90 -45 116
-29 32 -76 34 -121 7z m346 -100 c17 -33 11 -73 -17 -114 -33 -48 -56 -61 -83
-47 -21 11 -36 67 -25 99 3 12 18 35 32 51 30 36 76 41 93 11z m-269 -12 c36
-36 18 -148 -23 -149 -20 0 -59 49 -65 82 -11 72 42 113 88 67z m412 -160 c18
-29 -1 -67 -43 -89 -55 -28 -88 -26 -96 4 -7 29 20 80 50 95 29 14 77 9 89
-10z m-285 -69 c24 -11 57 -29 74 -41 33 -24 78 -109 78 -150 0 -43 -29 -127
-55 -156 -23 -27 -25 -27 -51 -13 -15 8 -50 49 -78 90 -49 71 -55 76 -114 96
-71 25 -90 38 -103 72 -33 86 134 154 249 102z m-326 -37 c40 -36 12 -136 -32
-113 -18 10 -40 59 -40 89 0 39 41 52 72 24z m649 -83 c28 -16 25 -65 -6 -86
-37 -24 -103 -31 -111 -10 -10 27 15 73 49 90 38 19 43 19 68 6z m-2225 -588
c21 -14 23 -43 8 -82 -19 -47 -43 -56 -101 -41 -115 31 -83 130 42 130 22 1
45 -3 51 -7z m-1982 -1001 c41 -45 3 -156 -40 -120 -18 15 -44 69 -44 93 0 20
28 46 49 46 10 0 26 -9 35 -19z m-159 -73 c29 -34 33 -88 9 -112 -23 -23 -32
-20 -75 23 -45 45 -53 90 -18 114 27 19 54 11 84 -25z m363 -94 c19 -13 23
-23 20 -62 -4 -57 -25 -66 -63 -28 -24 24 -35 83 -18 99 11 12 38 8 61 -9z
m-450 -79 c43 -50 21 -92 -39 -75 -43 13 -53 20 -68 48 -9 16 -9 27 0 43 9 18
17 20 47 15 22 -3 46 -16 60 -31z m330 -14 c43 -22 65 -60 56 -97 -5 -18 -24
-34 -73 -59 -64 -32 -69 -36 -95 -98 -32 -75 -55 -100 -88 -95 -32 4 -88 115
-88 172 1 78 54 154 130 185 42 16 118 13 158 -8z m-353 -164 c19 -27 19 -56
1 -63 -24 -9 -95 16 -106 37 -14 25 -4 57 18 61 26 6 71 -12 87 -35z m2056
-274 c144 -47 297 -277 380 -572 59 -212 73 -316 74 -546 l0 -210 -52 -150
c-94 -275 -118 -449 -117 -875 0 -359 4 -391 83 -732 123 -527 135 -733 76
-1283 -33 -299 -99 -612 -155 -733 -35 -76 -112 -159 -182 -197 -72 -40 -176
-47 -236 -16 -78 40 -221 260 -322 496 -153 356 -188 690 -106 1008 91 355 76
643 -70 1356 -73 358 -89 498 -80 691 9 189 31 330 78 510 70 267 69 259 78
550 8 284 15 331 59 432 50 111 172 216 309 264 80 28 113 29 183 7z"/>
</g>
</svg>
