<svg width="13" height="13" viewBox="0 0 13 13" fill="none" xmlns="http://www.w3.org/2000/svg">
<path d="M11.8903 4.83724C12.557 4.17057 12.8903 3.83724 12.8903 3.42303C12.8903 3.00881 12.557 2.67548 11.8903 2.00881L11.7543 1.87277C11.0876 1.20611 10.7543 0.872772 10.34 0.872772C9.92583 0.872772 9.5925 1.20611 8.92583 1.87277L8.2957 2.5029C7.62904 3.16957 7.2957 3.5029 6.88149 3.5029C6.46728 3.5029 6.13394 3.16957 5.46728 2.5029L4.83715 1.87277C4.17048 1.20611 3.83715 0.872772 3.42293 0.872772C3.00872 0.872772 2.67539 1.20611 2.00872 1.87277L1.87268 2.00881C1.20601 2.67548 0.872681 3.00881 0.872681 3.42302C0.872681 3.83724 1.20601 4.17057 1.87268 4.83724L2.50281 5.46737C3.16948 6.13404 3.50281 6.46737 3.50281 6.88158C3.50281 7.2958 3.16948 7.62913 2.50281 8.2958L1.87271 8.9259C1.20604 9.59257 0.872707 9.9259 0.872707 10.3401C0.872707 10.7543 1.20604 11.0877 1.87271 11.7543L2.00875 11.8904C2.67541 12.557 3.00875 12.8904 3.42296 12.8904C3.83717 12.8904 4.17051 12.557 4.83717 11.8904L5.46728 11.2603C6.13394 10.5936 6.46728 10.2603 6.88149 10.2603C7.2957 10.2603 7.62904 10.5936 8.2957 11.2603L8.92581 11.8904C9.59247 12.557 9.92581 12.8904 10.34 12.8904C10.7542 12.8904 11.0876 12.557 11.7542 11.8904L11.8903 11.7543C12.5569 11.0877 12.8903 10.7543 12.8903 10.3401C12.8903 9.9259 12.5569 9.59257 11.8903 8.9259L11.2602 8.2958C10.5935 7.62913 10.2602 7.2958 10.2602 6.88158C10.2602 6.46737 10.5935 6.13404 11.2602 5.46737L11.8903 4.83724Z" fill="#AEAEAE"/>
</svg>