<?xml version="1.0" standalone="no"?>
<!DOCTYPE svg PUBLIC "-//W3C//DTD SVG 20010904//EN"
 "http://www.w3.org/TR/2001/REC-SVG-20010904/DTD/svg10.dtd">
<svg version="1.0" xmlns="http://www.w3.org/2000/svg"
 width="1417.000000pt" height="1417.000000pt" viewBox="0 0 1417.000000 1417.000000"
 preserveAspectRatio="xMidYMid meet">

<g transform="translate(0.000000,1417.000000) scale(0.100000,-0.100000)"
fill="#000000" stroke="none">
<path d="M6540 11349 c-1397 -119 -2603 -819 -3201 -1856 -154 -269 -272 -588
-325 -887 -21 -117 -44 -330 -44 -408 l0 -67 43 -3 42 -3 6 -175 c6 -167 15
-245 55 -476 l18 -102 -28 -32 c-53 -64 -106 -191 -106 -256 0 -37 -10 -46
-70 -63 -111 -31 -210 -116 -258 -219 l-27 -57 3 -885 c4 -1034 7 -1162 28
-1222 42 -120 153 -218 285 -251 l54 -14 6 -71 c21 -230 203 -418 454 -469
147 -30 331 11 455 102 l47 34 39 -55 c165 -235 411 -479 662 -657 28 -20 54
-37 57 -37 2 0 23 -13 47 -29 74 -50 289 -162 398 -208 442 -186 864 -278
1470 -320 279 -19 960 3 1161 37 30 6 70 10 88 10 32 0 128 14 356 51 249 41
641 152 815 231 219 100 365 181 523 292 244 171 433 354 625 605 23 31 47 57
52 59 5 2 24 -8 43 -22 52 -40 165 -83 252 -96 307 -46 613 169 641 450 9 95
10 97 51 104 118 19 241 120 293 242 26 61 28 132 32 1219 l3 900 -27 57 c-48
103 -147 188 -258 219 -60 17 -70 26 -70 64 0 82 -47 184 -133 288 l-39 46 12
54 c31 152 51 320 57 480 l6 177 40 0 40 0 -6 148 c-24 686 -355 1383 -913
1922 -147 142 -216 200 -371 317 -622 466 -1403 753 -2249 828 -185 16 -958
19 -1134 4z m1125 -423 c252 -28 370 -48 585 -101 658 -162 1237 -480 1675
-919 230 -232 397 -461 528 -728 159 -324 233 -615 250 -988 l2 -55 45 -5 45
-5 3 -50 c7 -102 -32 -482 -54 -516 -6 -11 -83 -3 -96 10 -5 4 -17 40 -27 81
-11 41 -45 150 -76 242 -141 428 -323 829 -527 1163 -46 75 -92 150 -102 168
-64 105 -258 367 -401 540 -77 93 -81 97 -121 97 -50 0 -61 -11 -109 -115 -54
-115 -138 -300 -169 -370 -15 -33 -33 -71 -41 -85 -7 -14 -42 -91 -78 -170
-120 -271 -142 -308 -203 -355 -87 -66 -166 -77 -669 -90 -104 -2 -233 -7
-285 -9 -52 -3 -198 -8 -325 -11 -126 -3 -300 -8 -385 -11 -85 -3 -249 -7
-365 -10 -115 -3 -250 -7 -300 -9 -49 -2 -166 -6 -260 -9 -93 -3 -299 -10
-456 -17 -260 -10 -291 -10 -344 5 -131 39 -201 115 -348 378 -59 105 -226
379 -330 543 -24 39 -66 105 -91 147 -51 83 -71 97 -117 78 -23 -10 -43 -39
-96 -139 -259 -488 -441 -940 -610 -1516 -25 -87 -100 -397 -113 -471 l-13
-71 -123 0 c-92 0 -124 3 -128 13 -17 44 -46 342 -44 444 l3 115 41 3 41 3 7
97 c21 296 68 516 165 762 129 330 327 627 606 906 218 219 375 342 630 496
526 318 1120 499 1800 548 183 13 815 4 980 -14z"/>
</g>
</svg>
