<?xml version="1.0" standalone="no"?>
<!DOCTYPE svg PUBLIC "-//W3C//DTD SVG 20010904//EN"
 "http://www.w3.org/TR/2001/REC-SVG-20010904/DTD/svg10.dtd">
<svg version="1.0" xmlns="http://www.w3.org/2000/svg"
 width="512.000000pt" height="512.000000pt" viewBox="0 0 512.000000 512.000000"
 preserveAspectRatio="xMidYMid meet">

<g transform="translate(0.000000,512.000000) scale(0.100000,-0.100000)"
fill="#000000" stroke="none">
<path d="M4054 4760 c-86 -27 -181 -126 -205 -213 -17 -63 -7 -184 20 -235 12
-23 51 -74 87 -112 l66 -70 -303 0 c-342 0 -443 -10 -591 -60 -342 -115 -594
-342 -879 -792 -41 -65 -76 -118 -79 -118 -3 0 -39 53 -80 118 -131 206 -212
313 -328 433 -173 180 -349 294 -551 359 -163 53 -253 61 -635 58 -340 -3
-341 -3 -391 -28 -64 -31 -124 -91 -155 -155 -34 -69 -35 -198 -2 -265 34 -71
75 -113 144 -151 l63 -34 360 -6 c384 -5 390 -6 500 -61 106 -54 223 -158 314
-282 21 -29 116 -172 210 -319 l171 -267 -171 -267 c-94 -147 -189 -290 -210
-319 -91 -124 -208 -228 -314 -282 -110 -55 -116 -56 -500 -62 -356 -5 -360
-6 -410 -30 -64 -31 -124 -91 -155 -155 -34 -69 -35 -198 -2 -265 34 -71 75
-113 144 -151 l63 -34 375 0 c405 0 439 3 605 56 330 106 588 340 875 791 41
65 77 118 80 118 3 0 39 -53 79 -118 131 -206 213 -314 329 -433 201 -208 408
-330 662 -391 75 -18 127 -21 433 -25 l348 -5 -65 -69 c-98 -103 -111 -133
-111 -254 0 -114 16 -156 85 -225 69 -69 111 -85 225 -85 86 0 106 3 145 24
29 15 170 148 397 374 411 409 418 418 418 557 0 139 -7 148 -418 557 -227
226 -368 359 -397 374 -39 21 -59 24 -145 24 -114 0 -156 -16 -225 -85 -69
-69 -85 -111 -85 -225 0 -121 13 -151 111 -255 l66 -70 -284 0 c-163 0 -310 5
-343 11 -160 29 -329 150 -462 329 -22 30 -118 175 -212 322 l-171 268 171
267 c94 148 190 293 212 323 133 179 302 300 462 329 33 6 180 11 343 11 l284
0 -66 -70 c-98 -104 -111 -134 -111 -255 0 -114 16 -156 85 -225 69 -69 111
-85 225 -85 86 0 106 3 145 24 29 15 170 148 397 374 411 409 418 418 418 557
0 139 -7 148 -418 557 -235 234 -367 358 -397 374 -50 25 -190 36 -246 19z"/>
</g>
</svg>
